<svg xmlns="http://www.w3.org/2000/svg" width="401.545" height="170.178" viewBox="0 0 401.545 170.178">
  <g id="logo" transform="translate(-1249.827 -764.366)">
    <path id="Path_1" data-name="Path 1" d="M1475.466,764.366H1249.827L1359.7,934.545h227.817L1475.466,764.366Z" transform="translate(0)" fill="#f08e2d"/>
    <path id="Path_2" data-name="Path 2" d="M1593.513,764.366h-35.373l109.946,170.178h36.33l-110.9-170.178Z" transform="translate(-53.044)" fill="#154591"/>
    <path id="Path_3" data-name="Path 3" d="M1491.933,894.987a7.936,7.936,0,0,0-2.134-1.181c-2.448-.888-4.726-1.935-7.355-2.169a18.411,18.411,0,0,0-14.118,4.57c-3.7,3.033-5.642,7.923-5.932,12.69l-.329-.008c-1.01-5.461-3.358-10.133-7.885-13.381a17.206,17.206,0,0,0-11.434-3.594c-4.448.048-8.454,2.085-11.979,4.627,1.065-2.937,3.6-5.341,4.013-8.624a28.133,28.133,0,0,0,.139-5.267,22.426,22.426,0,0,0-.863-4.8c-.308-.831-.62-1.5-.927-2.331a19.329,19.329,0,0,0-8.525-7.8c-2.114-1.043-4.552-2.259-6.86-2.155h0c3.984-1.214,8.289-2.09,11.333-5.138a19.009,19.009,0,0,0,5.72-10.884,18.1,18.1,0,0,0-.906-9.411c-.468-1-1.1-2.005-1.568-3.005-.632-1-1.542-1.852-2.066-2.854-.076-.146.053.056.218.06a31.8,31.8,0,0,0,4.967,3.205,15.484,15.484,0,0,0,6.553,1.324,18.8,18.8,0,0,0,18.266-12.038l2.853.074c1.071,2.291,2.28,5.167,4.537,7.037a22.582,22.582,0,0,0,10.919,4.4c5.258.468,10.037-1.768,14.4-4.782,0,0,.56-.428-.063.272-5.09,5.741-6.105,13.015-2.406,20.633a14.957,14.957,0,0,0,5.592,6.569c1.624.866,3.248,1.732,4.877,2.434,1.633.536,3.283.416,4.911,1.117-1.334.623-2.65.59-3.98,1.049a24.381,24.381,0,0,0-6.176,3.131,18.5,18.5,0,0,0-5.612,6.77,20.437,20.437,0,0,0-.548,14.643c.683,1.615.966,3.858,2.476,4.857" transform="translate(-28.877 -10.746)" fill="#e8e8e8"/>
    <path id="Path_4" data-name="Path 4" d="M1457.646,891.765a24.984,24.984,0,1,0-1.7-.663" transform="translate(-32.872 -13.558)" fill="#f08e2d"/>
    <path id="Path_5" data-name="Path 5" d="M1445.985,876.524l.086-3.291-2.194-.057-.086,3.291,2.194.057Z" transform="translate(-33.371 -18.72)" fill="#e8e8e8"/>
    <path id="Path_6" data-name="Path 6" d="M1454.58,867.334l.087-3.291-2.194-.057-.086,3.291,2.194.057Z" transform="translate(-34.849 -17.139)" fill="#e8e8e8"/>
    <path id="Path_7" data-name="Path 7" d="M1461.561,854.265l.086-3.292-2.194-.057-.086,3.291,2.194.058Z" transform="translate(-36.05 -14.89)" fill="#e8e8e8"/>
    <path id="Path_8" data-name="Path 8" d="M1467.638,849.774l.086-3.292-2.194-.057-.086,3.292,2.194.057Z" transform="translate(-37.096 -14.118)" fill="#e8e8e8"/>
    <path id="Path_9" data-name="Path 9" d="M1484.444,856.182l.086-3.292-2.194-.057-.086,3.292,2.194.057Z" transform="translate(-39.987 -15.22)" fill="#e8e8e8"/>
    <path id="Path_10" data-name="Path 10" d="M1497.356,874.554l.086-3.291-2.194-.057-.086,3.291,2.194.057Z" transform="translate(-42.209 -18.381)" fill="#e8e8e8"/>
    <path id="Path_11" data-name="Path 11" d="M1478.667,874.2l.086-3.293-2.194-.057-.087,3.292,2.194.058Z" transform="translate(-38.993 -18.32)" fill="#e8e8e8"/>
    <path id="Path_12" data-name="Path 12" d="M1488.534,882.28l.086-3.292-2.194-.057-.087,3.292,2.194.057Z" transform="translate(-40.691 -19.71)" fill="#e8e8e8"/>
    <path id="Path_13" data-name="Path 13" d="M1476.072,897.336l.087-3.291-2.194-.057-.086,3.291,2.194.057Z" transform="translate(-38.547 -22.301)" fill="#e8e8e8"/>
    <path id="Path_14" data-name="Path 14" d="M1454.757,885.9l.086-3.291-2.194-.057-.086,3.291,2.194.057Z" transform="translate(-34.88 -20.334)" fill="#e8e8e8"/>
    <path id="Path_15" data-name="Path 15" d="M1467.919,894.736l.086-3.292-2.194-.057-.086,3.291,2.194.058Z" transform="translate(-37.144 -21.853)" fill="#e8e8e8"/>
    <path id="Path_16" data-name="Path 16" d="M1460.875,901.414l.089-2.331-1.975-.051-.044,1.673" transform="translate(-35.978 -23.169)" fill="#e8e8e8"/>
    <path id="Path_17" data-name="Path 17" d="M1427.72,881.269a23.512,23.512,0,0,0,.481,6.765c.147.663.464,1.165.611,1.828.459,1.329,1.586,2.347,2.044,3.677-.494-.014-1.316-.035-1.325.293a11.424,11.424,0,0,0,2.812,5.839c.32.338.139.993-.043,1.646-.884,2.282-2.26,4.552-2.818,7.008,3-1.239,5.527-3.534,8.641-2.958,1.963.546,3.057,2.77,5.37,2.5.329.008-.131-1.321.034-1.317,1.49-.291,2.6,1.221,3.907,1.75a26.091,26.091,0,0,0,5.063,1.615,11.247,11.247,0,0,0,3.3-.244c.165,0,.324.174.156.334-3.043,3.111-5.007,4.589-8.087,4.839-.329.026-.57-1.277-1.056-1.619-.654-.183-1.321.129-1.97-.217-3.249-1.732-6.653-3.8-10.62-3.241a58.916,58.916,0,0,0-9.627,2.876,21.4,21.4,0,0,1,1.407-3.422c1.918-4.067,3.2-8.809.34-13a12.022,12.022,0,0,1-2.5-5.007c-.138-.991-2.029-1.393-1.754-2.187,1.07-3.1,2.624-5.86,5.638-7.758Z" transform="translate(-29.631 -20.113)" fill="#e8e8e8"/>
    <path id="Path_18" data-name="Path 18" d="M1480.974,866.969c-.169.159-.654-.182-.827.142q-.014.494-.026.988c-.177.489-1.175.836-1.018,1.126a5.88,5.88,0,0,1,.061,6.095c-.7,1.629-4.141.88-4.141.88.363,2.919,4.518,1.436,5,1.942.157.334.08,1.62.005,1.4-.115-.332-1.178-.607-1.355-.118a2.337,2.337,0,0,0,1.091,2.334c.325.174.5-.151.663-.147s.16.169.156.334c-.355.979-1.334.624-2,.936.312.667,1.331.3,1.989.319a2.986,2.986,0,0,1-.333.919c-.221.59-1.66.72-2.214,1.218-.4.359-1.335,1.835-.724,2.478.427.45-1.792-.734-2.286-.746-.659-.017-1.706.7-2.148.273-.169-.161-.576-.2-.481-.507.112-.368-.152-.5-.308-.832-.455-1.494.892-2.611,2.066-3.4.675-.64.974.52,1.624.867.325.173.5-.151.667-.312.017-.658-.633-1-.784-1.5a2.418,2.418,0,0,0-3.261-1.238,1.757,1.757,0,0,0-.035,1.316c-.013.494.512-.645.658.017a2.4,2.4,0,0,1-1.71,2.426c-.416.154.8.844.468,1-.672.477-1.3-.527-1.967-.381-.329-.008-.507.481-.35.815.32.338.109.538.3,1,.143.339-.823-.022-1.157.134-.5.151-.687,1.094-.462,1.964.041.16-.4-.5-.564-.508a9.494,9.494,0,0,1-.762-2.326c-.156-.334-.5.234-.679.764-.052.156-.152-.457-.148-.622-.134-1.156.874-1.953.9-2.941.014-.494-.623-1.334-.441-1.988.177-.489.368-1.472,1.034-1.784a1.143,1.143,0,0,1,1.634.537c.311.667-.378.813-1.045,1.125a1.475,1.475,0,0,0,1.839-.034,2.134,2.134,0,0,0,.377-1.8,3.6,3.6,0,0,0-1.761-1.941c-.773-.349.328-1.513.3-2.133-1.04.385-2.068,2.98-3.153,2.47-.651-.3.893,2.082-.5,1.881.958,1.179,1.24,3,.061,3.954-.333.156-.316-.5-.48-.507-.169.161-.516.811-.026.989l.494.012.159.21c-.173.325-1.4-.119-2.021.111-.69.256-.376.238-.376.238-.316-.5-1.066-.152-1.374-.984a2.031,2.031,0,0,1-2.823.914c-.325-.172-.62-.329-.823-.021-.658,1,.549,1.057.54,1.387-.351.814-2.25-.526-2.321-.98-.056-.364-.823-.022-1.171.669-.33.657-.332-1.491-.479-2.154-.156-.333-.606-.427-1.1-.275,0-.165.311-.9.315-1.062.849-.966,2.031-2.088,2.837-1.408a2.526,2.526,0,0,0,3.461-.074c-.321-.337-.472-.835-.8-.844-.489-.177-.836.472-.849.966-.005.164-.334.156-.5.151-.489-.177.026-.988-.627-1.17-.165,0-.023.494-.023.494-.667.311-.964-.519-.955-.849,0-.113-.637.538-.825.823-.332.505-.817-1.762,1.206-2.788.329-.167.017-.659.026-.989.658.017.965.849,1.633.537.338-.321.857-1.3.528-1.3-.827.143-2.158.6-2.794-.238-.023.884-1.282.645-1.823.445-.345-.128-.229,1.27-.2,1.312,0,0-.021-.371-.025-.207h0a13.409,13.409,0,0,0-1.565.138l-.078-.315h0c.516-.81.55-.963.082-1.964.5-.152,1.157-.134,1.331-.46.5-.315-.3-1.16.047-1.809.169-.161.012-.494.341-.486-.673-1.005.113-1.149.213-1.807.15-.989-1.941-1.368-2.573-2.372-.311-.667.666-.312.84-.637l.012-.493c.741.046.584-.26.676-.642.087-.358.655.182.828-.142a.605.605,0,0,1,.177-.49l.489.178c.164,0,.371-.574.507-.481a.87.87,0,0,0,1.157-.135c.127-.1.16.17.32.338.165.005.169-.16.334-.156.657.017.143.826.472.835a.785.785,0,0,0,.363-1.307c-.325-.173-2.07.6-.983-.19.181-.133.3-.267.181-.653-.48-.508-1.9.716-1.489.289a1.813,1.813,0,0,0,.2-1.311c-.806-.68-.286-1.656-.762-2.326-.165,0-.485-.343-.655-.182a1.848,1.848,0,0,1-2.317.434,1.541,1.541,0,0,1-.109-2.144c.194-.364.783-.351,1.007-.714.175-.285-.027-.946.2-1.229s.478-.205.792-.35c.412-.191.756-.6,1.413-.539l-.69-1.432,2.36-1.036s.788,1.339,1.265,2.009a7.287,7.287,0,0,0,1.224-.628l.667-.339s5.124-2.8,7.792-4.05l2.127.549a6.373,6.373,0,0,1-.2,1.45c.165,0,.791-.276.827-.116.295,1.326.54,1.36,1.294.858.137-.09.034.825.194.994a1.585,1.585,0,0,1,1.955-1.266c.815.351.441,2.042-.552,2.235.325.173,1.029-.258.989-.029-.194,1.092.829-.2,1.318-.021.324.174.476.672.307.832-.835.472-1.567,2.182-2.077,2.8-.1.127.981-.222,1.03-.522.147.661.473,1.851-.052,1.975a.611.611,0,0,0-.522.549c-.013.493-.962,1.608-.811,2.106-.016.658.536-.005.426.5-.093.436-.977.633-1.151.986a4.814,4.814,0,0,0-.4,1.718c-.173.324-.364.546-.1.779a.82.82,0,0,1,.358.5l-.453.03-.5.315h0c0-.165.16.04,0,0-1.472-.368-.705,1.793-.393,2.46.931,2.166,2.49,5.5,5.635,4.924.826-.143,1.515-1.278.705-1.793-1.94-1.368-3.868-3.23-2.652-5.668l-.32-.339c0,.166-.169.161-.334.156-.324-.173-.354-.561-.476-.671-1.126-1.018,2-7.359,2.187-8.012.124-.449.481.506.646.511.662-.147.683-.97,1.025-1.455.321.337.642.675,1.14.524.169-.161.5-.151.342-.486-.161-.168-.477-.67-.143-.826.33.008.827-.143,1.152.03a.994.994,0,0,1,.468,1c0,.165.161.169.325.173.5-.317.676-.641.524-1.139-.156-.334-.485-.342-.646-.511,0,.165-.169.16-.334.156-.16-.17-.16-.17-.325-.173a1.443,1.443,0,0,1,1.018-1.126,1.327,1.327,0,0,1,1.464.7,3.126,3.126,0,0,1-1.039,4.035c.49.178.859.737,1.581.426.478-.205-.52.974-.858,1.295s-.19.983-.2,1.477a1.631,1.631,0,0,1-.68.806c-.315-.5-.133-1.157-.619-1.5-.164,0-.169.161-.173.325-.493-.014-.97-.684-1.143-.359a2.256,2.256,0,0,1-2.477.265c-.325-.174.507-.481.355-.979a.6.6,0,0,0-.815-.351c-1.173.793-1.661,3.7-.536,4.722.321.337.753-.433,1.073-.1a.576.576,0,0,0,.173-.325,2.3,2.3,0,0,0-1.211-1.277l.094-.07a1.992,1.992,0,0,1,2.456.559h0c.494.012,1.889,1.2,1.877,1.7l.042.5Z" transform="translate(-34.725 -14.761)" fill="#e8e8e8"/>
    <path id="Path_19" data-name="Path 19" d="M1461.623,857.979l-.143.229,1.442,2.1c-.17.161-1.925,1.145-1.925,1.145s.771.782,1.229,1.308c.146.168.773-.158.556-.273a.963.963,0,0,1-.3-1.162c.089-.272.925-.716.793-.4-.29.686,6.726.851,8.379.768.219-.01.711-.752-.02-.823-1.15-.113-3.37-.213-3.37-.213-.187-.7-2.46-.393-2.928-1.393-.156-.334.022-.825.031-1.153.185-.819,1.117-.767,1.694-.778.165,0-.064-1.124.168-1.149a6.2,6.2,0,0,0,1.9-.334c.369-.181.454-.582.766-.914.225-.241.9-.244,1.328-.4a.618.618,0,0,0,.348-.7,2.67,2.67,0,0,0-.527-.865l-9.423,5.024Z" transform="translate(-36.331 -15.241)" fill="#f08e2d"/>
    <path id="Path_20" data-name="Path 20" d="M1478.413,854.867a.8.8,0,0,0,.233-.488c0-.165.177-.489-.147-.663a.945.945,0,0,0-1.161.3c-.174.325.147.662.307.832.272.116.6.179.768.019Z" transform="translate(-39.134 -15.359)" fill="#f08e2d"/>
    <path id="Path_21" data-name="Path 21" d="M1470.766,859.022c.507-.481,1.742-.477,2.058.026.321.338.061.852-.442,1.169.324.173.147.662.142.828-.342.484-.819-.187-1.152-.031.355-1,.108-.818-.976-1.508-.16-.168.2-.324.369-.484Z" transform="translate(-37.941 -16.224)" fill="#f08e2d"/>
    <path id="Path_22" data-name="Path 22" d="M1486.624,868.956l.576.022.06-3.32-2.167-.056-.05,1.892" transform="translate(-40.468 -17.417)" fill="#e8e8e8"/>
    <path id="Path_23" data-name="Path 23" d="M1505.488,907.039a32.428,32.428,0,0,0-7.548-2.908c-.259-.037-1.237.811-1.908,1.288-1.169.628-2.68,1.686-3.943,1.764-.519.031.307-1.2-.023-1.209-4,1.707-8.012,4.072-12.6,3.129-.164-.005-.329-.009-.334.156,1.746,2.515,4.687,5.338,7.654,5.416a9.092,9.092,0,0,1,1.979-2.2c.831-.308,1.975.052,2.811-.42a31.7,31.7,0,0,1,6.02-3.466,6.03,6.03,0,0,1,2.967-.087,46.454,46.454,0,0,1,9.789,3.549c-1.881-3.672-3.584-7.834-2.973-12.265.389-2.3,1.922-4.231,2.8-6.35a5.283,5.283,0,0,0,.554-2.291c.185-.819,1.519-1.442,1.532-1.936-.087-2.967-2.428-5.773-4.577-7.586-.127-.107-.167.05-.171.214-.056,2.14.164,4.232-.874,6.182a25.284,25.284,0,0,1-1.505,2.98,8.642,8.642,0,0,1-1.658,2.482c-.561.479,2.611-.354,2.684.234.136,1.1-1.654,4.459-3.2,4.967a11.049,11.049,0,0,0,.936,5.15l1.591,3.205Z" transform="translate(-39.451 -20.168)" fill="#e8e8e8"/>
    <path id="Path_24" data-name="Path 24" d="M1465.06,873.071c.324.173.316.5.641.676,1.473.368,3.929.926,3.552,2.727,0,.165-.473-.835-.97-.683-.333.155-.026.987-.519.974-1.8-.378-3.314.735-4.955.528-.488-.177-1.13-.853-1.779-1.2-.161-.169.026-.988.368-1.472.177-.489.991-.139,1.494-.455.005-.164-.16-.168-.325-.172,0-.165.008-.329.013-.494a6.635,6.635,0,0,0,1.81.047c.329.008.021-.823.672-.476Z" transform="translate(-36.326 -18.688)" fill="#f08e2d"/>
    <path id="Path_25" data-name="Path 25" d="M1459.183,872.279c-.065.151-.008.329-.173.325-.329-.008-.485-.342-.645-.511-.135-1.156,1.55-2.594,2.182-1.59.476.671-1.013.962-1.365,1.776Z" transform="translate(-35.877 -18.202)" fill="#f08e2d"/>
    <path id="Path_26" data-name="Path 26" d="M1467.676,860.156c.4.421.787-.186,1.648-.041.66.113.219-.528.224-.694a4.819,4.819,0,0,0-1.383-1.188c-.333.156-1.176,1.2-.489,1.922Z" transform="translate(-37.435 -16.15)" fill="#f08e2d"/>
    <path id="Path_27" data-name="Path 27" d="M1456.615,878.581c.329.009-.013.494.316.5.165.005.169-.159.338-.32-.161-.168-.156-.333-.32-.338s-.169.161-.334.156Z" transform="translate(-35.577 -19.623)" fill="#f08e2d"/>
    <path id="Path_28" data-name="Path 28" d="M1453.873,880.6c.2-.126.667-.313.672-.478-.156-.333-.984-.19-1.157.134.329.009-.017.659.485.344Z" transform="translate(-35.022 -19.882)" fill="#f08e2d"/>
    <path id="Path_29" data-name="Path 29" d="M1419.825,940.008c-1.819-.775-4.69-3.475-6.653-3.262-6.111.663-10.978,3.624-16.175,7.111-.169.16-.156-.334-.151-.5a30.157,30.157,0,0,1,3.16-7.492c.339-.321-.152-.5-.152-.5-1.957-.71-4.11-.273-6.076-.653,2.364-4.329,14.763-8.232,14.763-8.232.918-1.513,2.876-4.975,3.732-6.27.2-.308.334-.156.5-.151,2.763,1.39,5.354,3.1,8.116,4.494a89.76,89.76,0,0,0,22.033,7.659,66.109,66.109,0,0,0,12.643,1.484,78.11,78.11,0,0,0,8.74-.43,55.708,55.708,0,0,0,8.926-1.249,76.649,76.649,0,0,0,27.479-11.633c.882-.605,1.859-1.845,2.338-1.256,1.321,1.627,2.773,4.19,3.8,5.782,3.253,1.567,6.365,2.226,9.609,4.122,1.945,1.2,4.05,2.577,5.99,3.945h0c-1.668.78-5.107.031-7.116,1.3a20.464,20.464,0,0,1,2.972,6.007c.3,1,1.1,1.841.909,2.988-5.686-2.948-11.49-7.177-17.774-6.723-24.261,14.516-58.151,15.219-81.613,3.461" transform="translate(-24.766 -26.6)" fill="#e8e8e8"/>
    <path id="Path_30" data-name="Path 30" d="M1455.158,879.636l-.169.161c.16.168.481.506.814.351a.64.64,0,0,0-.135-1.157c-.164,0-.176.49-.51.646Z" transform="translate(-35.297 -19.721)" fill="#f08e2d"/>
    <path id="Path_31" data-name="Path 31" d="M1474.671,853.524c-.14-.148-.152-.5-.316-.5-.334.156-.122.718-.026.988.055.156.338-.32.342-.484Z" transform="translate(-38.598 -15.253)" fill="#f08e2d"/>
    <path id="Path_32" data-name="Path 32" d="M1480.429,856.464l-.548.48.177.334c.083,0,.72-.8.371-.814Z" transform="translate(-39.58 -15.845)" fill="#f08e2d"/>
    <path id="Path_33" data-name="Path 33" d="M1460.588,862.829l-1.966-.381.533-1.468" transform="translate(-35.922 -16.622)" fill="#f08e2d"/>
    <path id="Path_34" data-name="Path 34" d="M1482.928,873.735l.813.405.308.831.091.717-.444.208-.648-.4-.26-.556-.2-.719.342-.485Z" transform="translate(-40.045 -18.816)" fill="#f08e2d"/>
    <path id="Path_35" data-name="Path 35" d="M1434.935,829.122l5.4-5.129,2.363,2.038s-1.664,2.756-2.526,4.216c-.7,1.464-2.416,4.219-2.416,4.219-2.786-.567-6.448-1.157-8.722-2.369a20.566,20.566,0,0,1,2.29,8.953l-8.7,5.042-2.409-2.368,7.609-7.542-4.652-4.733c-1.43-2.014-.85-5.293,1.8-5.718,3.808-.724,7.771,5.144,8.266,5.1l1.691-1.712Z" transform="translate(-29.316 -10.258)" fill="#e8e8e8"/>
    <path id="Path_36" data-name="Path 36" d="M1499.986,834.09l-5.615-8.971,2.183-1.59,7.1,6.649,5.066-4.808a4.648,4.648,0,0,1,2.97-.252,3.474,3.474,0,0,1,2.349,4.674l-4.928,5.8,6.567,7.089-1.476,1.884-8.819-4.953c.567-2.784,1.625-5.392,2.355-8.172a20.416,20.416,0,0,1-5.317,1.836c-1,.3-2.437.814-2.437.814Z" transform="translate(-42.073 -10.179)" fill="#e8e8e8"/>
    <path id="Path_37" data-name="Path 37" d="M1450.013,817.829c-.469.227-1.178.958-1.335.623.51.431-2.66-5.339-2.66-5.339-1.155.135-.784-1.5-2.1-1.7-.691-.105-1.126-1.018-1.274-1.681-.139-.992.71-1.957.731-2.78-.109-2.144-1.707-4-2.144-6.15a2.9,2.9,0,0,1,1.9-3.244c1.495-.455,3.3-.243,4.083,1.26.473.835.438,2.152-.718,2.287-.823-.021-2.123-.715-2.149.273a6.96,6.96,0,0,0,2,5.322c.485.342,1.634.537,2.105,1.373a3.6,3.6,0,0,1,.1,2.637c-.174.325.645.512.975.52.827-.142.686-1.774,1.643-1.988.663-.147,1.3.638,1.678.922.67.506,1.645.043,2.156-.6.178-.489-.307-.831-.632-1a.6.6,0,0,0-.5.151,5.539,5.539,0,0,1-1.244-2.832c.165,0,.33.009.334-.156-.906-3.153-2.313-5.99-3.384-9.147a2.28,2.28,0,0,1,.04-1.48,2.989,2.989,0,0,1,2.511-1.581c2.318-.434,4.66.232,6.9.675.823.163,1.629.7.945,1.672-1.364,1.776-3.686,2.374-5.37,3.812.455,1.494,1.075,2.992,1.694,4.492.316.5.827-.143,1.152.029a6.892,6.892,0,0,1,1.226,3.491,1.246,1.246,0,0,1-.346.649c-.178.489.476.672.81.515.831-.307.8-1.3,1.365-1.776.942-.359,1.069,1.072,1.884,1.422.819.186,1.639.317,1.99-.5.359-1.144-1.292-.968-1.717-1.528a2.738,2.738,0,0,1-.195-3.024c.165,0,1.15.084,1.307.418.333-.156-.1-.388-.2-.665-1.013-2.735-2.167-5.326-2.094-8.125.022-.822,1.929-1.307,2.769-1.944a2.9,2.9,0,0,1-1.14-3.612c.186-.818,2.24-2.206,1.768-3.042l-2.365.68.084-3.251,2.236,1.129-1.044-2.581,3.7.1-1.093,2.442,2.177-.876-.08,3.072-2.134-.8c-.115,1.232.622,1.416,1.377,2.424.8,1.069,1.1,3.529-.9,4.382.637.841,2.405.928,2.384,1.75.082,3.133-1.147,6.064-1.884,9.01.658.017,1.174-.792,1.326-.295a3.791,3.791,0,0,1-.58,3.279c-.173.324-.992.138-1.005.632-.173.325.307.832.637.84,1.148.195,1.741-1.491,2.668-1.247.712.187.936,2,2.092,1.865.333-.156,1-.468.849-.965a.858.858,0,0,0-.65-.346,9.958,9.958,0,0,1,1.07-3.1l.658.017a10.508,10.508,0,0,0,1.4-3.092c.35-.815,1.03-1.62.385-2.131-1.451-1.191-3.583-1.576-4.86-3.092a1.327,1.327,0,0,1,.385-2.13c2.157-.6,4.141-.881,6.293-1.317a2.516,2.516,0,0,1,2.13.384,3.609,3.609,0,0,1,.884,3.976c-.9,2.777-2.116,5.38-3.178,8.151-.181.654.811.516.8.845.307.831-.373,1.638-.723,2.452-.339.32-1.153-.03-1.166.464a1.05,1.05,0,0,0,1.3.857c.662-.146,1.332-1.188,1.882-.609.32.337.469.946.738,1.172.629.532,1.647.043,1.992-.607.177-.489-.138-.992.039-1.481.351-.813,1.182-1.122,1.529-1.771,1.2-1.945,2.4-3.725,2.3-5.869-.156-.333-.837.473-1.33.459-.658-.017-1.309-.364-1.291-1.022a2.53,2.53,0,0,1,2.048-2.746,2.982,2.982,0,0,1,3.55,2.728c.27,2.313-1.432,4.409-2.146,6.532,1.615,1.2.728,3.642-.94,4.422-.026.987-1.191,1.451-1.706,2.26l-1.931,4.561c-5.05-2.109-10.6-3.9-16.38-3.393-5.578.489-11.217.694-16.388,3.193Z" transform="translate(-32.921 -3.111)" fill="#e8e8e8"/>
    <path id="Path_38" data-name="Path 38" d="M1418.876,932.884c.292.167.5.686,1.111,1.033.462.264.764.126.911-.131.226-.4-.182-.737-.731-1.342a1.627,1.627,0,0,1-.45-2.123,1.933,1.933,0,0,1,2.831-.6c.953.545,1.293,1.177,1.033,1.629a.6.6,0,0,1-.845.257c-.382-.218-.393-.487-.9-.776-.323-.185-.639-.142-.786.115-.172.3.1.505.768,1.245a1.739,1.739,0,0,1,.392,2.257,2,2,0,0,1-2.99.606c-.7-.4-1.6-1.273-1.262-1.859a.667.667,0,0,1,.917-.312Z" transform="translate(-28.914 -28.387)" fill="#20201e"/>
    <path id="Path_39" data-name="Path 39" d="M1425.541,932.206a.66.66,0,0,1,.916-.312l1.879.924a.612.612,0,0,1,.334.869.6.6,0,0,1-.893.267l-1.265-.622-.48.977,1.159.57a.636.636,0,1,1-.559,1.138l-1.159-.57-.5,1.008,1.311.644a.6.6,0,0,1,.335.869.614.614,0,0,1-.894.267l-1.925-.946a.66.66,0,0,1-.312-.915l2.048-4.17Z" transform="translate(-29.865 -28.809)" fill="#20201e"/>
    <path id="Path_40" data-name="Path 40" d="M1430.63,936.681l.834.347a.664.664,0,1,0,.509-1.225l-.834-.348-.509,1.225Zm-.531-2.288a.662.662,0,0,1,.9-.369l1.52.633a1.827,1.827,0,0,1,1.138,2.5,1.637,1.637,0,0,1-1.943,1.022l.606,1.642a.833.833,0,0,1,.038.656.673.673,0,0,1-.89.315.7.7,0,0,1-.471-.561l-.738-2.6-.015-.007-.665,1.6a.686.686,0,1,1-1.263-.527l1.787-4.3Z" transform="translate(-30.694 -29.179)" fill="#20201e"/>
    <path id="Path_41" data-name="Path 41" d="M1439.021,937.548c.22-.254.431-.5.918-.336a.662.662,0,0,1,.415.848,1.9,1.9,0,0,1-.3.424l-2.982,3.442c-.237.276-.474.605-.954.44s-.465-.57-.483-.933l-.214-4.536a1.9,1.9,0,0,1,.026-.518.662.662,0,0,1,.847-.416c.487.167.5.493.519.83l.107,3.285,2.1-2.531Z" transform="translate(-31.93 -29.516)" fill="#20201e"/>
    <path id="Path_42" data-name="Path 42" d="M1442.854,939.753l-.017-.005-1.3,1.929,1.384.382-.072-2.306Zm-1.066-.584c.415-.577.771-1.075,1.43-.893.676.187.726.8.784,1.505l.322,3.777a2.182,2.182,0,0,1-.03.867.581.581,0,0,1-.783.362c-.431-.119-.493-.434-.514-.834l-.018-.566-2.164-.6-.308.476c-.223.332-.438.57-.869.451a.582.582,0,0,1-.487-.713,2.177,2.177,0,0,1,.421-.759l2.216-3.075Z" transform="translate(-32.569 -29.914)" fill="#20201e"/>
    <path id="Path_43" data-name="Path 43" d="M1447.869,940.415a.878.878,0,0,1,1.049-.676c.672.129.747.546.884,1.672l.269,2.157.016,0,1.042-1.908c.543-1,.767-1.358,1.438-1.23a.878.878,0,0,1,.726,1.015l-.047,3.137c-.009.634-.021,1.329-.059,1.528a.647.647,0,0,1-.752.518c-.606-.115-.632-.567-.611-1.036l.1-2.7-.017,0-1.457,2.731a.705.705,0,0,1-.853.465c-.406-.078-.573-.29-.624-.746l-.35-3.076-.016,0-.9,2.545c-.153.444-.344.855-.949.739a.648.648,0,0,1-.509-.758c.038-.2.282-.849.507-1.442l1.109-2.935Z" transform="translate(-33.792 -30.169)" fill="#20201e"/>
    <path id="Path_44" data-name="Path 44" d="M1457.46,944.8a1.237,1.237,0,0,0,2.461.262l.31-2.907a.685.685,0,1,1,1.36.145l-.31,2.906a2.606,2.606,0,0,1-5.181-.552l.309-2.905a.685.685,0,1,1,1.36.144l-.309,2.906Z" transform="translate(-35.485 -30.406)" fill="#20201e"/>
    <path id="Path_45" data-name="Path 45" d="M1463.86,946.223c.337.016.762.378,1.462.408.531.022.737-.24.749-.534.019-.456-.5-.57-1.266-.857-.7-.257-1.42-.592-1.375-1.68a1.937,1.937,0,0,1,2.242-1.834c1.1.046,1.688.451,1.666.974a.6.6,0,0,1-.634.617c-.439-.019-.573-.253-1.155-.277-.371-.016-.633.168-.645.464-.015.345.321.4,1.253.753a1.74,1.74,0,0,1,1.386,1.826c-.059,1.383-1.105,1.965-2.38,1.912-.8-.035-2-.4-1.975-1.073a.669.669,0,0,1,.672-.7Z" transform="translate(-36.708 -30.514)" fill="#20201e"/>
    <path id="Path_46" data-name="Path 46" d="M1472.913,946.358c.338-.013.79.315,1.491.286.531-.022.715-.3.7-.6-.018-.455-.545-.526-1.331-.748-.719-.2-1.465-.472-1.509-1.561a1.935,1.935,0,0,1,2.082-2.013c1.1-.044,1.72.31,1.741.834a.6.6,0,0,1-.581.666c-.439.018-.592-.2-1.174-.18-.372.017-.617.22-.6.516.014.346.354.374,1.311.647a1.739,1.739,0,0,1,1.533,1.7c.056,1.384-.939,2.05-2.213,2.1-.8.033-2.029-.229-2.057-.9a.668.668,0,0,1,.612-.752Z" transform="translate(-38.269 -30.513)" fill="#20201e"/>
    <path id="Path_47" data-name="Path 47" d="M1478.2,942.342a.66.66,0,0,1,.618-.744l2.085-.2a.614.614,0,0,1,.74.567.605.605,0,0,1-.622.695l-1.4.132.1,1.085,1.286-.12a.635.635,0,1,1,.118,1.261l-1.287.121.1,1.118,1.455-.137a.606.606,0,0,1,.741.567.615.615,0,0,1-.623.695l-2.135.2a.66.66,0,0,1-.744-.617l-.434-4.625Z" transform="translate(-39.29 -30.457)" fill="#20201e"/>
    <path id="Path_48" data-name="Path 48" d="M1484.829,943.524l.894-.133a.664.664,0,1,0-.2-1.311l-.893.133.195,1.311Zm-1.634-1.685a.66.66,0,0,1,.575-.777l1.629-.243a1.828,1.828,0,0,1,2.263,1.549,1.637,1.637,0,0,1-1.138,1.877l1.367,1.095a.841.841,0,0,1,.372.542.676.676,0,0,1-.6.729.7.7,0,0,1-.694-.238L1485,944.525l-.016,0,.255,1.712a.685.685,0,1,1-1.353.2l-.686-4.6Z" transform="translate(-40.148 -30.353)" fill="#20201e"/>
    <path id="Path_49" data-name="Path 49" d="M1492.151,940.042c.06-.332.112-.653.617-.76a.663.663,0,0,1,.79.516,1.9,1.9,0,0,1-.038.517l-.8,4.483c-.063.358-.1.763-.594.867s-.692-.252-.893-.555l-2.5-3.788a1.9,1.9,0,0,1-.244-.458.664.664,0,0,1,.517-.79c.5-.106.682.167.869.447l1.773,2.768.508-3.247Z" transform="translate(-41.057 -30.091)" fill="#20201e"/>
    <path id="Path_50" data-name="Path 50" d="M1497.591,943.8a.685.685,0,1,1-1.324.342l-1.163-4.514a.685.685,0,1,1,1.324-.341l1.163,4.513Z" transform="translate(-42.193 -29.997)" fill="#20201e"/>
    <path id="Path_51" data-name="Path 51" d="M1497.79,938.822a.662.662,0,0,1,.457-.854l2.006-.6a.613.613,0,0,1,.836.41.606.606,0,0,1-.472.8l-1.35.406.314,1.043,1.237-.373a.635.635,0,1,1,.365,1.213l-1.237.373.324,1.075,1.4-.421a.6.6,0,0,1,.836.41.613.613,0,0,1-.473.8l-2.052.618a.661.661,0,0,1-.852-.459l-1.337-4.445Z" transform="translate(-42.655 -29.757)" fill="#20201e"/>
    <path id="Path_52" data-name="Path 52" d="M1502.57,937.2a.65.65,0,0,1,.387-.919c.339-.127.514-.021,1.142.358l3.125,1.87.015-.007-1-2.672a.685.685,0,1,1,1.28-.48l1.633,4.367a.652.652,0,0,1-.387.92c-.34.128-.522.023-1.143-.358l-3.125-1.87-.015.006,1,2.673a.685.685,0,1,1-1.28.479l-1.632-4.367Z" transform="translate(-43.472 -29.332)" fill="#20201e"/>
    <path id="Path_53" data-name="Path 53" d="M1510.527,934.746l-.7.315a.637.637,0,1,1-.521-1.155l2.649-1.194a.612.612,0,0,1,.906.286.62.62,0,0,1-.384.868l-.7.316,1.674,3.71a.685.685,0,1,1-1.247.562l-1.674-3.709Z" transform="translate(-44.564 -28.948)" fill="#20201e"/>
    <path id="Path_54" data-name="Path 54" d="M1514.1,932.508a.658.658,0,0,1,.291-.922l1.858-.966a.613.613,0,0,1,.9.248.6.6,0,0,1-.316.876l-1.249.651.5.965,1.146-.594a.635.635,0,1,1,.584,1.124l-1.147.6.518,1,1.3-.673a.605.605,0,0,1,.9.246.613.613,0,0,1-.315.877l-1.9.989a.66.66,0,0,1-.922-.292l-2.14-4.12Z" transform="translate(-45.451 -28.586)" fill="#20201e"/>
    <path id="Path_55" data-name="Path 55" d="M1520.8,933.179c.29-.174.844-.1,1.446-.463.455-.274.484-.605.333-.859-.235-.392-.733-.2-1.528-.019-.725.168-1.511.286-2.071-.648a1.935,1.935,0,0,1,.864-2.764c.941-.565,1.658-.55,1.927-.1a.6.6,0,0,1-.192.863c-.376.224-.616.1-1.116.4-.319.19-.436.488-.284.741.178.3.489.159,1.461-.06a1.738,1.738,0,0,1,2.159.763,2,2,0,0,1-.936,2.9c-.687.412-1.891.77-2.238.191a.668.668,0,0,1,.176-.953Z" transform="translate(-46.256 -28.152)" fill="#20201e"/>
  </g>
</svg>
